# xmcd
#
# Track frame offsets: 
#        150
#        16279
#        31995
#        50313
#        69693
#        83300
#        100120
#        117096
#        131599
#        144594
#        164162
#
# Disc length: 2454 seconds
#
# Revision: 0
# Processed by: cddbd v1.5.1PL2 Copyright (c) Steve Scherf et al.
# Submitted via: ExactAudioCopy v0.95a3
#
DISCID=8b09940b
DTITLE=Country Delight - Home to you
DYEAR=1900
DGENRE=
TTITLE0=Home to you
TTITLE1=Strong man
TTITLE2=Blue, blue sky
TTITLE3=Local Folkie
TTITLE4=Like a fire
TTITLE5=Must be love
TTITLE6=Johnny old friend
TTITLE7=The ride
TTITLE8=Gemütlichkeit
TTITLE9=Dancing to the music
TTITLE10=Cherokee
EXTD=
EXTT0=
EXTT1=
EXTT2=
EXTT3=
EXTT4=
EXTT5=
EXTT6=
EXTT7=
EXTT8=
EXTT9=
EXTT10=
PLAYORDER=
